<?xml version="1.0" encoding="UTF-8" standalone="no"?>
<!-- Created with Inkscape (http://www.inkscape.org/) -->

<svg
   xmlns:dc="http://purl.org/dc/elements/1.1/"
   xmlns:cc="http://creativecommons.org/ns#"
   xmlns:rdf="http://www.w3.org/1999/02/22-rdf-syntax-ns#"
   xmlns:svg="http://www.w3.org/2000/svg"
   xmlns="http://www.w3.org/2000/svg"
   xmlns:sodipodi="http://sodipodi.sourceforge.net/DTD/sodipodi-0.dtd"
   xmlns:inkscape="http://www.inkscape.org/namespaces/inkscape"
   width="744.09448"
   height="744.09003"
   id="svg2"
   version="1.1"
   inkscape:version="0.48.2 r9819"
   sodipodi:docname="logo.svg"
   inkscape:export-filename="/Users/alex/Documents/datasagovau-openstreetmap-conflater/logo.png"
   inkscape:export-xdpi="90"
   inkscape:export-ydpi="90">
  <defs
     id="defs4">
    <filter
       inkscape:collect="always"
       id="filter3815">
      <feGaussianBlur
         inkscape:collect="always"
         stdDeviation="4.6352464"
         id="feGaussianBlur3817" />
    </filter>
  </defs>
  <sodipodi:namedview
     id="base"
     pagecolor="#ffffff"
     bordercolor="#666666"
     borderopacity="1.0"
     inkscape:pageopacity="0.0"
     inkscape:pageshadow="2"
     inkscape:zoom="0.35"
     inkscape:cx="-165"
     inkscape:cy="483.46142"
     inkscape:document-units="px"
     inkscape:current-layer="layer1"
     showgrid="false"
     inkscape:window-width="1280"
     inkscape:window-height="752"
     inkscape:window-x="0"
     inkscape:window-y="0"
     inkscape:window-maximized="1" />
  <metadata
     id="metadata7">
    <rdf:RDF>
      <cc:Work
         rdf:about="">
        <dc:format>image/svg+xml</dc:format>
        <dc:type
           rdf:resource="http://purl.org/dc/dcmitype/StillImage" />
        <dc:title></dc:title>
      </cc:Work>
    </rdf:RDF>
  </metadata>
  <g
     inkscape:label="Layer 1"
     inkscape:groupmode="layer"
     id="layer1"
     transform="translate(0,-308.27218)">
    <g
       id="g3860">
      <path
         inkscape:connector-curvature="0"
         id="path3857"
         d="m 200,403.79078 c -18.62751,-7.67067 -36.79106,-2.85873 -48.47829,13.04758 -13.74551,5.76134 -13.87333,31.87813 -17.236,46.95242 -5.61305,19.35852 -5.79387,40.662 -8.66559,60.78892 3.12967,18.12113 -9.62023,33.44495 -5.62012,51.77089 1.15021,13.63318 -4.44596,26.28057 -2.85714,40.00968 -0.0886,12.95338 0.14529,25.91815 0,38.85908 -5.70702,5.47726 -1.62892,14.93007 -2.85715,22.27217 2.8299,16.22868 -7.50275,31.71689 -5.61967,46.92676 -5.56194,11.01069 -1.70826,37.09094 -5.8089,53.08291 2.29674,14.536 -4.621731,26.85377 -5.714283,40.5753 -0.05133,19.99709 0.07382,40.04216 0,60 -6.764431,14.71098 -5.91122,31.79579 -14.285714,45.71429 2.736996,16.46235 -16.405117,13.2665 -20,20 -8.063943,-0.12262 -35.278236,1.88796 -28.883929,-4.97768 -0.675509,-3.12127 -7.334979,2.74584 0.3125,-3.59375"
         style="fill:none;stroke:#000000;stroke-width:39.1;stroke-linecap:butt;stroke-linejoin:miter;stroke-opacity:1;stroke-miterlimit:4;stroke-dasharray:none" />
    </g>
    <path
       sodipodi:type="spiral"
       style="fill:none;stroke:#ff0000;stroke-width:40;stroke-linecap:butt;stroke-linejoin:miter;stroke-miterlimit:4;stroke-opacity:1;stroke-dasharray:none"
       id="path3863"
       sodipodi:cx="411.42856"
       sodipodi:cy="446.94717"
       sodipodi:expansion="1"
       sodipodi:revolution="3"
       sodipodi:radius="226.22005"
       sodipodi:argument="-20.906595"
       sodipodi:t0="0"
       d="m 411.42856,446.94717 c -5.30035,-10.02768 10.90211,-12.09206 16.66666,-8.80953 15.62159,8.89548 11.69274,31.20713 0.9524,42.14286 -19.21196,19.56146 -51.30333,12.64989 -67.61905,-6.90474 -23.94398,-28.6972 -13.72504,-71.70454 14.76187,-93.09524 37.96857,-28.51044 92.21827,-14.85585 118.57144,22.61901 33.16276,47.15827 16.01653,112.78666 -30.47614,144.04763 -56.30886,37.86121 -133.38606,17.19472 -169.52383,-38.33328 -42.5871,-65.43783 -18.38394,-154.00481 46.19041,-195.00001 74.55365,-47.33059 174.63648,-19.58051 220.47621,54.04754 52.08601,83.66087 20.78221,195.27721 -61.90468,245.9524 C 406.76166,670.46371 283.5993,635.60144 228.09526,543.852 166.47525,441.99273 204.89943,307.27515 305.7142,246.94721"
       transform="translate(25.714286,228.27218)" />
    <flowRoot
       xml:space="preserve"
       id="flowRoot3865"
       style="font-size:40px;font-style:normal;font-weight:normal;line-height:125%;letter-spacing:0px;word-spacing:0px;fill:#000000;fill-opacity:1;stroke:none;font-family:Sans"
       transform="translate(0,308.27218)"><flowRegion
         id="flowRegion3867"><rect
           id="rect3869"
           width="125.71429"
           height="94.285713"
           x="580"
           y="104.09003" /></flowRegion><flowPara
         id="flowPara3871">2137</flowPara></flowRoot>    <flowRoot
       xml:space="preserve"
       id="flowRoot3873"
       style="font-size:40px;font-style:normal;font-weight:normal;line-height:125%;letter-spacing:0px;word-spacing:0px;fill:#000000;fill-opacity:1;stroke:none;font-family:Sans"
       transform="translate(0,308.27218)"><flowRegion
         id="flowRegion3875"><rect
           id="rect3877"
           width="357.14285"
           height="77.14286"
           x="285.71429"
           y="606.94714" /></flowRegion><flowPara
         id="flowPara3879">x+27y-32z</flowPara></flowRoot>    <path
       style="fill:none;stroke:#000000;stroke-width:1px;stroke-linecap:butt;stroke-linejoin:miter;stroke-opacity:1"
       d="m 265.71429,258.37574 48.57142,2.85714"
       id="path3881"
       inkscape:connector-curvature="0"
       transform="translate(0,308.27218)" />
    <path
       style="fill:#cfa500;fill-opacity:1;stroke:#ff0000;stroke-width:0;stroke-miterlimit:4;stroke-opacity:1;stroke-dasharray:none"
       d="M 395.9393,536.83967 C 329.22147,525.7559 268.43924,468.91234 251.32866,401.59976 c -5.68004,-22.34517 -5.5927,-68.6443 0.17193,-91.13016 2.47532,-9.6554 7.85221,-25.07838 11.94864,-34.27329 7.39761,-16.60477 7.51711,-16.70658 17.64227,-15.03144 5.60682,0.92761 13.68657,1.70072 17.955,1.71801 l 7.76078,0.0315 -5.69195,9.64715 c -19.10304,32.37723 -27.44264,81.11357 -19.98942,116.81736 5.28309,25.30799 21.06435,53.98289 40.29088,73.20942 29.6763,29.67629 62.90828,43.76975 103.03017,43.69439 40.05918,-0.0752 70.44438,-12.06653 96.43532,-38.05747 40.08398,-40.08399 49.33346,-102.92663 22.01123,-149.54847 -35.95642,-61.35501 -122.49636,-73.15184 -166.86494,-22.74646 -47.49654,53.95891 -17.72712,135.91578 49.54286,136.39422 26.94141,0.19161 50.29767,-15.24093 57.16349,-37.7705 6.34495,-20.82042 -1.80322,-46.27741 -17.50049,-54.67601 -10.27376,-5.49683 -29.53608,-4.76489 -39.07427,1.48478 -13.23634,8.67278 -16.39155,35.27659 -3.76669,31.75959 19.50131,-5.43262 18.89224,-5.50592 18.89224,2.27354 0,9.41401 -10.90944,17.04614 -20.81294,14.56052 -11.81558,-2.96552 -22.53541,-16.52898 -24.02362,-30.39632 -2.57654,-24.00844 16.98018,-47.21364 44.07409,-52.29648 22.64713,-4.24863 54.83867,13.29768 67.22451,36.64138 9.01898,16.99816 8.96771,52.5426 -0.10045,69.6442 -14.48572,27.31851 -37.71196,44.17626 -67.24616,48.80768 -44.95311,7.04934 -89.52904,-17.93751 -110.02955,-61.67662 -6.70534,-14.30625 -7.6573,-19.88938 -7.6573,-44.90876 0,-26.93968 0.58796,-29.79524 10.29512,-50 18.6361,-38.78972 53.079,-65.01265 94.7723,-72.15441 41.16952,-7.05204 88.44978,9.23769 120.1942,41.41119 29.4642,29.86241 41.91058,60.64168 41.84732,103.48636 -0.14857,100.74776 -91.48889,175.33589 -193.88393,158.32506 l 0,0 z"
       id="path3885"
       inkscape:connector-curvature="0"
       transform="translate(0,308.27218)" />
  </g>
</svg>
